# Blender v2.72 (sub 0) OBJ File: 'tree.blend'
# www.blender.org
o Cube
v -0.938172 3.154984 1.106251
v 1.026534 8.542486 4.380409
v 0.826551 2.179139 -1.169854
v 0.989273 5.260465 1.234850
v -1.632470 10.932718 0.387661
v -3.175939 9.623914 -2.018309
v -3.477226 9.936931 2.021369
v -2.664767 4.716134 1.551166
v -1.525175 5.599570 4.470031
v 3.916336 9.820985 -0.303761
v -2.795420 5.028816 -2.007441
v -2.614895 6.171345 -0.517086
v -2.853723 5.083625 3.405796
v -1.061713 10.022189 1.253366
v 2.786177 4.989162 0.747578
v 2.692379 8.412404 3.619810
v -3.782369 4.796513 -0.591476
v 2.271716 10.414774 -0.857051
v -2.572977 9.754501 1.514128
v 0.335119 10.747180 -1.040691
v 0.127936 5.952450 3.049084
v 1.484566 10.565821 -1.025128
v 1.106750 10.840705 -0.499995
v -0.576229 10.278349 -0.804395
v 3.648922 5.713833 3.947677
v 3.250010 9.554734 -2.052642
v -1.027737 11.104332 -0.501958
v -4.411653 8.296632 1.634952
v 1.522761 10.067141 -0.043296
v -3.393443 5.773544 0.739065
v 4.390327 8.671034 1.599408
v 1.593151 10.812054 0.617648
v 0.774751 10.759618 0.162356
v -0.752690 1.222324 1.041971
v -0.959381 5.477920 -1.702102
v 0.700853 -1.640104 1.173514
v -1.219125 10.270712 0.017917
v 2.283662 5.353069 4.013526
v -2.500523 10.077085 -2.771052
v 1.756622 10.559625 2.854553
v -1.279373 -1.753263 -0.104757
v -4.209997 5.267054 1.714418
v -0.051749 11.010755 2.082014
v -0.163457 6.858321 5.365943
v -1.020473 5.567999 1.040604
v 0.965805 3.359831 1.063268
v 4.384961 7.882134 -1.041839
v -1.255698 12.091170 1.902215
v 1.189310 5.407434 -4.104301
v 0.026828 -1.986700 -0.942668
v 1.434268 2.027621 0.883828
v 2.658219 4.968509 2.301042
v -1.792632 10.753485 2.688785
v -1.937093 10.263650 -1.549161
v 2.367343 10.346233 1.403524
v -0.627077 9.794488 2.587597
v -4.134237 9.982049 0.354844
v 1.416175 0.253341 0.256779
v -4.216740 7.740787 -3.000041
v 3.495693 9.159338 3.277510
v 0.151296 11.498834 1.193625
v -1.174070 5.550597 -4.162971
v -4.201971 6.234870 3.397898
v 0.958159 6.029731 4.648750
v -2.709698 7.227502 -4.369270
v 3.957864 5.345710 -2.370797
v -3.405764 6.115877 4.237925
v 1.395215 10.200041 -2.029927
v 2.107641 8.819264 -4.228482
v -0.027250 10.130342 -1.747896
v -5.046878 8.089007 0.924475
v 3.364976 9.508572 1.514595
v 4.567541 7.366916 2.639988
v 2.428735 9.985181 -2.865395
v -1.907335 6.057429 -2.958389
v -1.625745 10.421597 1.657628
v -0.281053 4.461242 2.313091
v -0.195888 10.917319 -0.054256
v -0.110714 9.742461 3.544747
v -4.148098 5.256015 -2.100073
v 4.010190 8.346633 -3.008476
v 0.687010 10.046259 2.396121
v 1.024246 10.419498 1.268425
v -3.387252 9.840010 -0.302910
v 2.948635 5.822281 -1.179713
v -2.362214 7.413849 4.114337
v -1.499905 9.998312 -1.357427
v -2.752671 5.391988 2.528631
v -1.009057 8.694059 4.234692
v -0.572866 4.304578 1.171507
v 0.952129 1.837952 0.136767
v -1.158893 0.563295 1.186811
v 0.126966 1.197884 -1.359600
v 2.536670 6.150729 -4.292263
v -3.228614 8.994925 3.220740
v 0.312186 3.416151 1.245898
v -4.391998 7.822272 -1.024945
v -0.943465 1.829503 0.103097
v -1.113840 0.426639 -0.242152
v 0.736799 0.702132 1.102774
v -1.169865 4.158895 0.584934
v 1.102631 5.431931 0.628524
v -1.021374 -1.780256 0.357008
v -0.140424 2.370816 1.221171
v 0.862291 -0.734894 -1.241679
v -5.100177 5.396684 0.921348
v -0.338924 2.138006 -1.437010
v 1.364640 11.919601 1.793281
v 1.288683 3.564712 0.164764
v 1.149783 0.869503 1.287028
v 1.041443 -2.014721 -0.598554
v -0.005024 -1.015340 1.509000
v -1.884422 10.462172 -0.439116
v -1.452034 3.947792 0.334485
v 3.862787 4.800553 -0.690042
v 0.976513 5.391598 -2.862878
v 0.999365 -2.027006 0.312395
v 5.223448 6.320753 1.008264
v -0.724814 11.243171 1.058005
v -1.461718 2.050735 0.772520
v -0.901148 10.180460 -2.612119
v 0.072693 8.649737 -4.415210
v 0.476882 0.640614 -1.048890
v -0.238072 -1.929417 0.290280
v 3.319501 5.913437 1.003974
v -0.073145 0.831234 1.395064
v -0.695063 -0.586392 -1.257162
v -1.492692 4.892405 -0.955959
v 1.096162 0.307247 -0.227766
v -4.528504 8.401146 2.899452
v -1.519010 5.530104 -0.448237
v -1.374514 0.284890 0.270284
v 1.334805 5.038165 -1.134764
v -1.349155 1.842093 -0.383989
v -2.696049 9.881074 -2.705169
v 1.259832 1.107523 -0.572803
v 1.034973 4.306149 1.052121
v 0.938260 -0.170295 0.445805
v 1.038066 -1.670939 1.054433
v 1.568441 10.101080 1.805327
v 0.963655 4.670722 -0.966959
v 1.176813 1.644627 1.241609
v 0.959468 1.027269 -1.029211
v -1.080024 -1.697018 -0.813259
v -0.085198 5.704948 -2.070348
v 0.215532 5.575524 -1.702861
v 3.396257 5.913279 3.735938
v 1.051378 -1.569175 1.075444
v -0.339671 5.406395 -3.089510
v -0.609925 0.815243 -1.030497
v 0.020079 5.582923 -2.053960
v 4.100475 5.309485 1.551304
v 1.895194 5.025593 -2.200561
v 1.439713 5.585788 0.674912
v -0.059130 5.264998 -0.921109
v 0.228653 3.621262 -1.440747
v 0.011940 5.582923 -2.053607
v 1.650714 5.567519 -2.144760
v -0.958888 0.447411 -1.034620
v -0.961217 0.343969 -1.031978
v 0.975255 3.821301 0.991882
v -2.695245 9.931747 -2.685816
v -2.690596 9.610184 -2.782931
v -0.654979 -1.757157 1.177781
v -2.409719 5.286130 -1.320327
v -0.997585 1.491828 -1.029806
v 1.032092 10.156724 -2.192663
v 1.007117 3.174308 1.076656
v 1.083206 -1.090851 1.120145
v 1.011197 4.146674 1.024252
v 1.313342 4.715341 2.499975
v 0.957752 0.856529 -1.038878
v -1.068242 4.195604 -1.052990
v -0.957736 0.685950 -1.040265
v -1.024671 -0.703359 -1.063068
v 0.978966 3.600415 1.022421
v -0.045039 5.582923 -2.056145
v -0.982119 -0.059652 -1.028727
v 1.078099 -0.752806 1.116812
v 0.990377 3.384138 1.053897
v 1.030099 -1.721353 1.042638
v -1.062059 3.966260 -1.081924
v -0.966973 -1.707950 -0.970278
v -1.022410 1.839913 -1.061093
v -2.725945 8.865746 -2.895832
v -0.795636 -1.763019 -0.964277
v 1.049476 2.952137 -1.097662
v -1.410195 5.535294 0.818178
v -1.025818 2.351385 -1.060471
v -2.831795 7.853476 -3.074946
v -0.066483 0.244791 1.133934
v -0.958576 0.515165 -1.036214
vn -0.244700 0.909900 0.335000
vn 0.480900 -0.176800 -0.858700
vn -0.262500 0.486600 -0.833300
vn 0.523800 -0.347000 0.778000
vn 0.014600 0.125700 0.992000
vn 0.335300 0.942000 0.014400
vn -0.451200 -0.848900 0.275200
vn 0.590700 0.256500 0.765100
vn 0.168000 -0.925300 -0.339900
vn 0.487200 -0.790800 0.370500
vn -0.021000 0.843600 -0.536600
vn -0.882900 0.323100 -0.340800
vn 0.224800 0.195700 0.954600
vn 0.082600 -0.993500 0.078200
vn 0.024800 -0.997100 -0.072200
vn 0.664100 0.693600 -0.279100
vn 0.040500 -0.436800 0.898700
vn 0.844200 -0.199800 -0.497500
vn 0.418500 0.060700 0.906200
vn 0.694700 -0.114800 -0.710100
vn 0.990900 0.070200 0.114800
vn -0.354000 -0.847200 -0.396100
vn -0.423700 0.050000 0.904400
vn 0.326500 0.608000 -0.723700
vn 0.021400 -0.999700 -0.006700
vn 0.492000 0.523600 -0.695500
vn -0.100000 0.284000 -0.953600
vn 0.667900 0.672500 -0.318800
vn 0.398700 0.457100 0.795000
vn 0.118700 0.976600 0.179100
vn -0.719400 -0.677600 -0.152800
vn 0.538400 0.573500 -0.617400
vn -0.455900 0.227100 -0.860500
vn -0.483700 0.870600 0.090100
vn 0.334700 0.000800 0.942300
vn -0.643600 0.164200 0.747500
vn -0.208300 0.907400 -0.364900
vn -0.968400 -0.168900 0.183300
vn 0.185200 -0.020200 -0.982500
vn -0.607200 -0.117100 -0.785900
vn -0.993900 -0.068400 -0.086200
vn -0.147500 -0.762100 -0.630400
vn -0.947000 0.019100 -0.320700
vn 0.268400 -0.008800 0.963300
vn 0.983000 -0.178600 0.043000
vn -0.696300 -0.261300 -0.668400
vn -0.857500 0.486700 -0.166900
vn -0.488000 -0.853600 -0.182300
vn 0.780000 -0.592500 -0.201100
vn 0.386700 0.116300 -0.914800
vn -0.189400 -0.307100 -0.932600
vn -0.354000 -0.907100 0.227600
vn 0.678100 0.683000 0.271300
vn 0.150300 -0.881700 -0.447300
vn -0.285200 -0.349500 -0.892500
vn -0.308500 0.168900 0.936100
vn -0.411400 0.900400 -0.141500
vn -0.415300 0.908400 -0.048200
vn 0.855800 0.351400 -0.379600
vn -0.747700 -0.246900 0.616400
vn -0.499000 0.763400 -0.410100
vn 0.764900 -0.146600 -0.627200
vn -0.256800 -0.805600 0.533900
vn -0.506700 -0.860900 0.047100
vn -0.777200 -0.239900 -0.581800
vn 0.591600 0.745300 0.307400
vn -0.455600 0.820000 0.346400
vn -0.848100 0.401800 0.345200
vn -0.059900 -0.997900 -0.023000
vn 0.489500 -0.868900 0.072800
vn -0.874000 -0.432800 0.220700
vn -0.613300 -0.720400 -0.323900
vn 0.197200 -0.804000 -0.560900
vn 0.221200 0.878400 -0.423600
vn 0.163800 0.986100 -0.027000
vn 0.285900 0.452500 0.844700
vn -0.578600 0.755500 0.307100
vn 0.435200 0.054700 0.898700
vn 0.055500 -0.905600 -0.420400
vn 0.067700 0.355500 0.932200
vn 0.738100 0.530300 -0.417200
vn -0.172300 0.411400 0.895000
vn -0.279900 -0.510200 -0.813200
vn -0.747900 0.580900 -0.321300
vn 0.863300 0.503500 0.035700
vn -0.498700 0.738600 -0.453600
vn 0.242000 0.851900 -0.464300
vn -0.031100 0.995500 0.089200
vn 0.149600 0.916100 -0.371900
vn -0.294800 0.553500 0.779000
vn -0.022800 0.516900 0.855800
vn -0.000200 0.985400 -0.170100
vn -0.358700 0.911000 0.203600
vn -0.358400 0.551900 0.753000
vn 0.068400 0.997600 -0.011400
vn 0.835300 0.549000 -0.029500
vn -0.461200 0.413700 0.784900
vn 0.620800 0.770000 -0.147400
vn 0.338400 0.481100 -0.808700
vn -0.200400 -0.848900 0.489000
vn -0.171600 -0.771700 0.612400
vn -0.034300 -0.990300 0.134500
vn -0.526900 0.649200 -0.548600
vn 0.677100 0.608500 0.413900
vn -0.630700 0.289200 0.720100
vn 0.359100 0.600200 -0.714700
vn -0.814500 0.574800 -0.078900
vn 0.512300 0.858800 0.004400
vn 0.730900 -0.634300 0.252100
vn 0.551000 0.641900 -0.533200
vn -0.529300 0.610500 0.589200
vn -0.514600 0.504400 -0.693400
vn 0.552600 0.067400 0.830700
vn -0.004800 0.858100 0.513400
vn -0.621500 0.758400 0.196300
vn -0.057400 -0.650500 -0.757300
vn 0.169400 -0.797900 0.578500
vn -0.309500 0.333600 0.890400
vn -0.736500 0.486600 -0.470000
vn 0.325900 0.931100 0.163800
vn -0.850000 0.512700 -0.120900
vn -0.950600 0.105000 -0.292100
vn 0.026000 -0.069200 -0.997300
vn 0.260800 -0.090000 0.961200
vn -0.994300 -0.019200 -0.105100
vn -0.724500 0.178500 0.665800
vn 0.127400 0.971400 -0.200200
vn -0.741800 0.154500 0.652600
vn 0.923200 -0.061400 -0.379400
vn -0.951000 -0.151300 0.269700
vn -0.957300 -0.121900 0.262200
vn -0.998900 -0.047600 -0.003400
vn 0.398300 0.235800 -0.886400
vn -0.868900 -0.128500 0.478000
vn 0.364900 0.232600 -0.901500
vn -0.307800 0.757600 -0.575600
vn 0.777900 0.572000 0.260300
vn 0.574300 0.071500 0.815500
vn -0.014500 -0.817200 -0.576200
vn 0.082900 -0.459200 0.884400
vn -0.018700 0.164400 -0.986200
vn -0.236900 0.935900 -0.260700
vn -0.186600 0.105400 0.976800
vn -0.664200 0.012300 0.747500
vn -0.512600 0.448300 -0.732300
vn 0.121900 0.705400 0.698200
vn -0.402700 -0.914200 -0.045300
vn 0.432300 0.597600 0.675300
vn 0.033300 -0.104700 -0.993900
vn -0.003300 0.307400 0.951600
vn -0.715000 0.493700 0.495000
vn 0.111800 0.305500 -0.945600
vn 0.724400 0.488900 0.486000
vn 0.173000 -0.855100 0.488800
vn 0.321500 -0.927400 0.191400
vn 0.977900 -0.059600 -0.200400
vn -0.651000 -0.710500 -0.267300
vn -0.060500 0.584400 0.809200
vn 0.646100 -0.526200 0.552900
vn 0.961600 -0.079100 -0.262900
vn -0.284100 0.896200 -0.340700
vn -0.499100 0.768100 -0.401200
vn 0.122300 0.716100 -0.687200
vn 0.233900 -0.925300 -0.298300
vn 0.031400 -0.093600 -0.995100
vn -0.782800 0.118200 -0.611000
vn -0.227100 -0.091700 0.969500
vn -0.166200 0.975700 0.142700
vn 0.248200 0.903000 -0.350800
vn 0.942700 0.290400 -0.164400
vn -0.988200 -0.130600 0.079800
vn -0.149000 0.960000 -0.237300
vn -0.396000 0.505900 0.766400
vn -0.313300 0.860700 0.401300
vn 0.299300 0.873700 -0.383600
vn 0.490300 -0.492000 0.719400
vn 0.289400 -0.951900 0.100300
vn 0.096300 -0.062100 -0.993400
vn 0.212300 -0.966400 0.144700
vn -0.017600 0.560100 0.828200
vn 0.913200 -0.011100 0.407400
vn -0.603700 -0.712000 -0.358700
vn 0.409400 0.865800 -0.287800
vn -0.449300 0.655000 0.607600
vn -0.051300 0.990500 -0.127600
vn 0.042700 0.169000 0.984700
vn -0.366900 -0.916000 0.162100
vn -0.328000 -0.942400 -0.065800
vn 0.939900 0.340300 -0.028400
vn -0.269500 -0.952400 0.142800
vn -0.701000 -0.617900 0.356000
vn 0.013600 -0.989600 -0.143500
vn -0.111600 0.937000 -0.331200
vn -0.507300 0.793000 -0.337300
vn -0.138900 0.001300 -0.990300
vn 0.143900 0.791400 -0.594100
vn 0.473300 -0.053400 0.879300
vn 0.320000 -0.045100 -0.946400
vn -0.762800 -0.153700 -0.628100
vn 0.595300 0.753100 -0.280200
vn 0.174800 0.983700 -0.042300
vn 0.080700 -0.820800 -0.565500
vn 0.025000 -0.762500 -0.646600
vn -0.080700 -0.423300 0.902400
vn -0.322700 -0.936100 0.139600
vn 0.237900 -0.929100 -0.283300
vn 0.986000 -0.166900 0.001600
vn 0.856600 -0.512000 0.063800
vn -0.466400 -0.718100 -0.516500
vn 0.036800 0.594400 0.803400
vn 0.776800 0.629500 0.018400
vn 0.014300 0.766100 -0.642600
vn 0.019300 -0.088800 -0.995900
vn 0.555600 0.109000 -0.824200
vn -0.044300 0.101100 0.993900
vn 0.074900 0.890300 0.449300
vn -0.994600 -0.058600 -0.085800
vn -0.390000 0.906400 -0.162200
vn -0.160900 0.802000 -0.575200
vn 0.565000 0.807200 -0.171200
vn -0.848900 0.519600 -0.096800
vn 0.464300 0.081500 0.881900
vn -0.274200 0.096100 0.956900
vn 0.095100 -0.795600 0.598400
vn 0.258300 -0.929000 0.265100
vn 0.340000 0.003600 0.940400
vn 0.721800 -0.593700 -0.355800
vn 0.991300 0.034600 -0.126600
vn 0.586800 0.749400 0.306700
vn 0.428800 -0.871600 0.237700
vn -0.968500 0.185500 0.166300
vn 0.695100 0.166900 0.699300
vn -0.580100 -0.676300 0.454000
vn 0.256700 -0.390700 0.884000
vn 0.319700 -0.045200 -0.946400
vn -0.579500 -0.337000 0.742000
vn -0.614500 0.197400 0.763800
vn 0.079000 -0.898800 0.431200
vn 0.236500 -0.814900 0.529200
vn 0.124400 -0.573100 -0.810000
vn 0.999700 -0.016700 0.016500
vn -0.072200 0.043100 0.996500
vn 0.631800 0.119000 0.766000
vn 0.558200 -0.281500 0.780500
vn -0.592700 -0.117300 0.796800
vn -0.676000 0.282100 0.680700
vn -0.849500 0.018000 -0.527300
vn -0.920000 -0.115400 0.374600
vn 0.995200 0.097500 0.006800
vn -0.740500 -0.031700 0.671300
vn 0.122900 -0.759700 -0.638600
vn -0.386400 0.008000 -0.922300
vn -0.928400 -0.021600 0.371100
vn 0.284700 -0.398300 -0.871900
vn 0.854100 0.299000 -0.425600
vn 0.004300 -0.059300 -0.998200
vn -0.022700 -0.999600 -0.014500
vn 0.406900 -0.052100 0.912000
vn -0.011800 -0.224900 -0.974300
vn 0.030700 0.113800 0.993000
vn 0.953900 -0.069100 0.292100
vn -0.421200 0.083600 0.903100
vn 0.395400 -0.890900 0.223500
vn 0.828100 -0.170100 0.534200
vn -0.329000 0.322100 -0.887700
vn -0.191300 -0.051000 0.980200
vn -0.080400 -0.984900 0.153400
vn -0.648700 0.078800 0.757000
vn -0.969300 -0.226900 -0.095000
vn 0.901900 -0.179100 0.393100
vn -0.090200 0.039100 0.995200
vn -0.232100 0.018500 0.972500
vn -0.776500 0.017400 -0.629900
vn 0.624500 0.115500 0.772500
vn -0.962300 0.056300 -0.266300
vn -0.164800 0.167200 -0.972100
vn 0.258800 0.052500 0.964500
vn 0.973300 -0.226700 0.035500
vn 0.021800 0.029800 0.999300
vn 0.117200 0.949700 0.290500
vn -0.894000 0.206400 -0.397700
vn 0.950900 0.053200 -0.304900
vn 0.984000 -0.028000 0.176000
vn -0.191700 -0.979600 -0.060100
vn 0.836000 0.067300 -0.544600
vn -0.254200 -0.967100 -0.009700
vn -0.074900 0.008900 0.997100
vn 0.037300 0.990200 -0.134700
vn -0.767600 -0.063700 0.637700
vn -0.418600 0.033800 0.907500
vn 0.827300 0.202600 -0.523900
vn -0.079100 -0.996400 0.029300
vn 0.017800 -0.999800 0.002600
vn -0.150500 -0.008300 0.988600
vn -0.562600 -0.199800 0.802200
vn -0.893400 -0.195600 0.404300
vn -0.895000 0.040000 -0.444200
vn 0.062100 -0.092300 -0.993800
vn 0.832000 0.027700 -0.554100
vn -0.177200 -0.978400 0.106600
vn 0.082500 -0.994200 -0.068900
vn 0.000000 -1.000000 0.001100
s off
f 32//1 33//1 83//1
f 3//2 123//2 93//2
f 65//3 39//3 122//3
f 67//4 13//4 86//4
f 16//5 38//5 25//5
f 10//6 18//6 55//6
f 21//7 64//7 44//7
f 36//8 191//8 112//8
f 106//9 30//9 42//9
f 9//10 21//10 44//10
f 122//11 68//11 69//11
f 71//12 57//12 97//12
f 25//13 60//13 16//13
f 146//14 131//14 35//14
f 41//15 144//15 103//15
f 43//16 119//16 48//16
f 36//17 112//17 164//17
f 47//18 118//18 115//18
f 38//19 16//19 2//19
f 133//20 136//20 3//20
f 102//21 109//21 133//21
f 154//22 85//22 15//22
f 100//23 110//23 46//23
f 119//24 37//24 5//24
f 154//25 131//25 146//25
f 78//26 24//26 27//26
f 155//27 133//27 156//27
f 26//28 81//28 74//28
f 2//29 16//29 40//29
f 33//30 23//30 78//30
f 65//31 62//31 75//31
f 74//32 81//32 69//32
f 14//33 76//33 48//33
f 54//34 39//34 6//34
f 92//35 34//35 1//35
f 44//36 89//36 9//36
f 119//37 61//37 78//37
f 17//38 97//38 80//38
f 109//39 58//39 91//39
f 150//40 128//40 107//40
f 28//41 42//41 130//41
f 152//42 52//42 125//42
f 106//43 71//43 97//43
f 46//44 96//44 100//44
f 58//45 117//45 111//45
f 80//46 59//46 65//46
f 97//47 84//47 6//47
f 131//48 12//48 35//48
f 25//49 52//49 73//49
f 107//50 155//50 93//50
f 127//51 50//51 144//51
f 64//52 21//52 38//52
f 5//53 76//53 14//53
f 154//54 52//54 77//54
f 145//55 157//55 35//55
f 63//56 95//56 130//56
f 54//57 6//57 113//57
f 40//58 82//58 79//58
f 10//59 47//59 26//59
f 98//60 114//60 134//60
f 24//61 20//61 70//61
f 94//62 81//62 66//62
f 88//63 8//63 77//63
f 188//64 12//64 131//64
f 97//65 17//65 106//65
f 10//66 55//66 72//66
f 61//67 43//67 108//67
f 28//68 7//68 57//68
f 116//69 62//69 49//69
f 116//70 49//70 94//70
f 8//71 88//71 30//71
f 88//72 13//72 63//72
f 188//73 8//73 12//73
f 140//74 40//74 72//74
f 57//75 19//75 84//75
f 55//76 140//76 72//76
f 19//77 76//77 5//77
f 140//78 55//78 108//78
f 116//79 94//79 66//79
f 43//80 56//80 82//80
f 157//81 145//81 146//81
f 95//82 86//82 53//82
f 11//83 75//83 149//83
f 6//84 39//84 59//84
f 60//85 73//85 72//85
f 119//86 78//86 37//86
f 61//87 33//87 78//87
f 121//88 70//88 68//88
f 23//89 22//89 20//89
f 78//90 27//90 37//90
f 44//91 2//91 89//91
f 20//92 78//92 23//92
f 84//93 19//93 113//93
f 27//94 113//94 37//94
f 70//95 121//95 54//95
f 26//96 47//96 81//96
f 86//97 89//97 53//97
f 76//98 53//98 56//98
f 87//99 27//99 24//99
f 88//100 63//100 42//100
f 11//101 12//101 80//101
f 116//102 146//102 149//102
f 113//103 27//103 87//103
f 33//104 29//104 23//104
f 5//105 14//105 119//105
f 32//106 29//106 33//106
f 5//107 113//107 19//107
f 55//108 18//108 32//108
f 17//109 12//109 30//109
f 37//110 113//110 5//110
f 7//111 95//111 53//111
f 84//112 97//112 57//112
f 108//113 82//113 140//113
f 55//114 32//114 83//114
f 16//115 60//115 72//115
f 75//116 11//116 80//116
f 118//117 125//117 115//117
f 86//118 95//118 67//118
f 18//119 29//119 32//119
f 74//120 68//120 26//120
f 7//121 28//121 130//121
f 107//122 127//122 150//122
f 107//123 93//123 127//123
f 46//124 4//124 96//124
f 132//125 120//125 114//125
f 101//126 114//126 1//126
f 155//127 102//127 133//127
f 1//128 114//128 120//128
f 105//129 136//129 111//129
f 132//130 103//130 92//130
f 92//131 120//131 132//131
f 114//132 128//132 134//132
f 136//133 105//133 123//133
f 41//134 103//134 132//134
f 108//135 83//135 61//135
f 69//136 68//136 74//136
f 22//137 23//137 29//137
f 2//138 44//138 64//138
f 154//139 77//139 188//139
f 21//140 77//140 52//140
f 155//141 107//141 128//141
f 45//142 155//142 128//142
f 89//143 86//143 9//143
f 42//144 71//144 106//144
f 59//145 39//145 65//145
f 54//146 87//146 70//146
f 52//147 154//147 15//147
f 72//148 73//148 31//148
f 145//149 151//149 177//149
f 43//150 82//150 108//150
f 57//151 71//151 28//151
f 108//152 55//152 83//152
f 72//153 40//153 16//153
f 85//154 153//154 66//154
f 145//155 35//155 149//155
f 81//156 47//156 66//156
f 85//157 66//157 115//157
f 89//158 79//158 53//158
f 15//159 115//159 125//159
f 73//160 152//160 31//160
f 40//161 140//161 82//161
f 78//162 20//162 24//162
f 20//163 22//163 70//163
f 88//164 21//164 13//164
f 62//165 65//165 122//165
f 14//166 48//166 119//166
f 48//167 76//167 43//167
f 79//168 82//168 56//168
f 22//169 18//169 68//169
f 10//170 118//170 47//170
f 42//171 63//171 130//171
f 24//172 70//172 87//172
f 76//173 56//173 43//173
f 61//174 119//174 43//174
f 18//175 26//175 68//175
f 52//176 152//176 73//176
f 21//177 9//177 13//177
f 49//178 122//178 69//178
f 35//179 11//179 149//179
f 2//180 79//180 89//180
f 129//181 136//181 91//181
f 115//182 15//182 85//182
f 18//183 10//183 26//183
f 130//184 95//184 7//184
f 39//185 54//185 121//185
f 151//186 145//186 157//186
f 75//187 62//187 149//187
f 146//188 116//188 153//188
f 118//189 10//189 31//189
f 153//190 154//190 146//190
f 146//191 145//191 149//191
f 149//192 62//192 116//192
f 70//193 22//193 68//193
f 19//194 53//194 76//194
f 49//195 69//195 94//195
f 122//196 121//196 68//196
f 152//197 118//197 31//197
f 156//198 3//198 93//198
f 150//199 134//199 128//199
f 79//200 56//200 53//200
f 57//201 7//201 19//201
f 116//202 66//202 153//202
f 65//203 75//203 80//203
f 77//204 21//204 88//204
f 52//205 38//205 21//205
f 88//206 42//206 30//206
f 115//207 66//207 47//207
f 125//208 52//208 15//208
f 30//209 12//209 8//209
f 2//210 40//210 79//210
f 61//211 83//211 33//211
f 39//212 121//212 122//212
f 49//213 62//213 122//213
f 94//214 69//214 81//214
f 157//215 145//215 177//215
f 29//216 18//216 22//216
f 80//217 97//217 59//217
f 84//218 113//218 6//218
f 19//219 7//219 53//219
f 113//220 87//220 54//220
f 97//221 6//221 59//221
f 38//222 2//222 64//222
f 96//223 104//223 126//223
f 11//224 35//224 12//224
f 38//225 52//225 25//225
f 126//226 100//226 96//226
f 12//227 17//227 80//227
f 51//228 58//228 109//228
f 31//229 10//229 72//229
f 154//230 153//230 85//230
f 114//231 45//231 128//231
f 73//232 60//232 25//232
f 63//233 13//233 67//233
f 191//234 100//234 126//234
f 3//235 156//235 133//235
f 126//236 34//236 191//236
f 164//237 112//237 191//237
f 164//238 117//238 36//238
f 30//239 106//239 17//239
f 118//240 152//240 125//240
f 136//241 133//241 109//241
f 164//242 191//242 34//242
f 46//243 51//243 102//243
f 58//244 51//244 138//244
f 86//245 13//245 9//245
f 63//246 67//246 95//246
f 155//247 156//247 93//247
f 99//248 134//248 144//248
f 102//249 51//249 109//249
f 71//250 42//250 28//250
f 8//251 188//251 77//251
f 132//252 114//252 98//252
f 45//253 101//253 1//253
f 50//254 105//254 111//254
f 93//255 123//255 105//255
f 127//256 93//256 105//256
f 50//257 111//257 117//257
f 58//258 138//258 117//258
f 50//259 127//259 105//259
f 90//260 96//260 45//260
f 111//261 136//261 129//261
f 34//262 126//262 104//262
f 172//263 136//263 123//263
f 91//264 136//264 109//264
f 150//265 159//265 134//265
f 1//266 34//266 104//266
f 124//267 117//267 164//267
f 120//268 92//268 1//268
f 127//269 134//269 159//269
f 117//270 110//270 36//270
f 4//271 45//271 96//271
f 45//272 1//272 90//272
f 127//273 144//273 134//273
f 51//274 46//274 110//274
f 99//275 144//275 41//275
f 150//276 127//276 159//276
f 164//277 34//277 92//277
f 110//278 138//278 51//278
f 191//279 36//279 100//279
f 102//280 45//280 4//280
f 99//281 132//281 98//281
f 138//282 110//282 117//282
f 4//283 46//283 102//283
f 103//284 144//284 124//284
f 58//285 111//285 129//285
f 50//286 124//286 144//286
f 96//287 90//287 104//287
f 155//288 45//288 102//288
f 98//289 134//289 99//289
f 110//290 100//290 36//290
f 58//291 129//291 91//291
f 124//292 50//292 117//292
f 188//293 131//293 154//293
f 90//294 1//294 104//294
f 101//295 45//295 114//295
f 92//296 103//296 164//296
f 99//297 41//297 132//297
f 3//298 172//298 123//298
f 172//299 3//299 136//299
f 103//300 124//300 164//300
f 35//301 157//301 146//301
f 177//302 151//302 157//302
l 159 192
l 143 172